<svg xmlns="http://www.w3.org/2000/svg" width="1200" height="720" viewBox="0 0 1200 720" role="img" aria-label="Informática - Tecnologia para negócios">
  <defs>
    <linearGradient id="g" x1="0" y1="0" x2="1" y2="1"><stop stop-color="#1D4ED8"/><stop offset="1" stop-color="#00B050"/></linearGradient>
    <radialGradient id="r" cx="78%" cy="18%" r="70%"><stop stop-color="white" stop-opacity=".35"/><stop offset=".52" stop-color="white" stop-opacity=".06"/><stop offset="1" stop-color="white" stop-opacity="0"/></radialGradient>
    <filter id="blur"><feGaussianBlur stdDeviation="18"/></filter>
  </defs>
  <rect width="1200" height="720" fill="url(#g)"/>
  <rect width="1200" height="720" fill="url(#r)"/>
  <g opacity=".16" fill="none" stroke="white" stroke-width="2"><path d="M0 520 C260 420 360 620 620 500 S970 300 1200 360"/><path d="M0 610 C260 510 390 690 690 575 S980 410 1200 455"/></g>
  <g opacity=".22" filter="url(#blur)"><circle cx="210" cy="165" r="100" fill="white"/><circle cx="970" cy="560" r="135" fill="white"/></g>
  <g transform="translate(735 145)" opacity=".88"><rect x="0" y="0" width="330" height="380" rx="34" fill="white" opacity=".16"/><rect x="38" y="54" width="254" height="28" rx="14" fill="white" opacity=".56"/><rect x="38" y="112" width="210" height="18" rx="9" fill="white" opacity=".36"/><rect x="38" y="154" width="242" height="18" rx="9" fill="white" opacity=".28"/><circle cx="108" cy="270" r="58" fill="white" opacity=".22"/><rect x="190" y="228" width="74" height="86" rx="18" fill="white" opacity=".20"/></g>
  <g transform="translate(112 370)"><rect width="575" height="185" rx="34" fill="#001B2E" opacity=".34"/><text x="42" y="78" font-family="Arial, Helvetica, sans-serif" font-size="54" font-weight="800" fill="white">Informática</text><text x="44" y="126" font-family="Arial, Helvetica, sans-serif" font-size="28" font-weight="600" fill="white" opacity=".82">Tecnologia para negócios</text><text x="44" y="162" font-family="Arial, Helvetica, sans-serif" font-size="18" font-weight="700" letter-spacing="4" fill="white" opacity=".62">UNIBF CRISTALINA-GO</text></g>
</svg>